<svg width="208" height="122" viewBox="0 0 208 122" fill="none" xmlns="http://www.w3.org/2000/svg">
<g clip-path="url(#clip0_5092_2)">
<path d="M2.37695 14.3617C7.03627 14.228 10.9444 14.2506 13.9229 14.3079C23.0936 14.5028 27.4913 15.1491 30.3408 17.6742C31.5045 18.6536 32.405 19.9118 32.959 21.3333C33.477 22.8016 33.6358 24.3741 33.4219 25.9173C33.2423 27.397 32.8227 28.8368 32.1807 30.18C31.2809 32.2504 28.0879 34.2949 28.0645 34.3099C30.4086 35.0254 32.4741 36.4562 33.9756 38.4046C37.5119 46.0102 33.0537 51.2288 33.0537 51.2288C28.8559 57.4993 18.111 56.602 18.04 56.596H2.37695V14.3617ZM13.5459 36.9925C13.6181 37.0686 13.5459 45.9261 13.5459 45.9261L19.3223 46.0745C19.3416 46.0735 24.5892 45.7964 24.4678 41.5335C24.3468 37.2884 20.78 37.2294 20.7373 37.2288L13.5459 36.9925ZM13.6172 21.0199C13.5455 21.0393 13.617 28.8374 13.6172 28.8617L19.2725 28.763C19.2725 28.763 22.4246 28.3293 22.501 24.9603C22.577 21.5908 19.9117 21.2217 20.0752 21.2826C17.9291 21.0777 15.7729 20.9898 13.6172 21.0199Z" fill="white"/>
<path d="M76.3953 28.7075L81.7499 25.383C79.7419 22.6517 74.9349 16.7659 68.7627 15.1415C67.8614 14.9035 66.8878 14.7411 66.8878 14.7411C61.2632 13.3471 56.5931 15.406 55.5054 15.8064C54.1059 16.3277 48.9338 18.4244 45.7317 23.1239C44.9884 24.2437 44.3397 25.4226 43.7922 26.6486C43.0092 28.4414 42.4252 30.3136 42.0504 32.2321C41.9264 32.7591 41.8324 33.2926 41.769 33.8301C41.6701 34.8023 41.6701 35.7819 41.769 36.7541C41.8799 38.3294 42.1487 39.8898 42.5714 41.4121C42.9027 42.6476 43.3509 43.8493 43.9101 45.001C44.7131 46.6508 45.7505 48.1774 46.9905 49.5343C48.3502 51.0078 49.9305 52.2642 51.6758 53.2592C53.6381 54.4027 55.7587 55.2543 57.9698 55.7865C60.1493 56.3699 62.4104 56.5945 64.663 56.4514C66.9236 56.285 69.1406 55.7462 71.2232 54.8572C72.9985 54.1676 74.6638 53.2259 76.1671 52.0616C77.3979 51.0742 78.5197 49.9598 79.5137 48.7372C80.61 47.4159 81.6381 46.0403 82.5942 44.6156C82.9212 44.151 83.332 43.5616 83.7997 42.7532C84.2813 41.9506 84.685 41.1044 85.0053 40.2259C85.169 39.746 85.3024 39.2565 85.4046 38.7601C85.852 36.9036 86.4341 35.0818 87.1464 33.3088C87.9463 31.2639 89.0278 29.3391 90.3599 27.5892C91.6339 25.9535 93.6343 23.3808 97.3232 21.8697C99.6301 20.9137 102.145 20.5586 104.628 20.8383C107.112 21.1179 109.483 22.023 111.516 23.4677C113.17 24.5436 114.582 25.9466 115.665 27.5892C116.455 28.7723 117.057 30.0695 117.449 31.435C117.894 33.1713 118.023 34.9727 117.829 36.7541C117.647 38.5557 117.148 40.3114 116.353 41.941C115.583 43.7152 114.408 45.2871 112.921 46.5328C111.434 47.7785 109.676 48.6637 107.785 49.1187C104.906 49.9572 101.851 50.0029 98.9471 49.251C96.7251 48.6452 94.6671 47.5546 92.9231 46.0587C91.6275 44.9238 90.5401 43.574 89.7096 42.0694L84.3626 45.5412C84.4158 45.6356 84.5641 45.8925 84.7619 46.2061C86.5567 48.8606 88.8267 51.1654 91.459 53.006C91.8393 53.2705 92.2614 53.5349 92.2614 53.5349C92.2614 53.5349 93.3529 54.2376 94.2694 54.7325C96.1675 55.6354 98.203 56.22 100.293 56.4627C102.476 56.7418 104.688 56.6973 106.857 56.3305C108.809 56.0422 110.704 55.4587 112.478 54.6003C114.158 53.7806 115.699 52.7033 117.042 51.4081C117.061 51.4081 117.114 51.2683 117.179 51.2758C117.243 51.2834 117.293 51.4874 117.312 51.6763C117.331 51.8652 117.407 52.1069 117.445 52.3412C117.512 52.7362 117.557 53.1348 117.578 53.5349C117.612 53.6709 117.654 53.8523 117.711 54.0676C117.802 54.4076 117.905 54.7665 117.981 55.0007C118.16 55.5492 118.384 56.0823 118.65 56.5949H126.682L126.416 56.2172C126.184 55.8054 125.96 55.3634 125.747 54.8874C125.002 53.2007 124.549 51.4011 124.408 49.5645C124.336 48.3405 124.256 46.4441 124.275 44.1132C124.275 41.9523 124.378 41.2156 124.408 39.323C124.458 36.1874 124.484 34.2608 124.138 32.1452C123.682 29.3641 122.682 26.6985 121.195 24.2988C119.503 21.5824 117.208 19.2862 114.486 17.5857C111.753 15.9435 108.693 14.9122 105.519 14.5635C102.502 14.149 99.4308 14.415 96.5322 15.3417C94.0269 16.1893 91.7047 17.4978 89.6868 19.1988C88.0287 20.5205 86.5441 22.0435 85.2677 23.7321C84.1795 25.1883 83.2382 26.7472 82.4573 28.3864C81.7879 29.7312 81.2859 31.0308 80.3162 33.5732C78.8292 37.4605 79.0878 37.1848 78.4413 38.6279C77.5259 40.8524 76.2602 42.9182 74.6915 44.7479C73.5736 46.1145 72.225 47.2778 70.706 48.1856C67.3511 49.9896 63.4616 50.5557 59.7267 49.7836C57.5287 49.2271 55.4793 48.2009 53.7216 46.7765C51.9639 45.3521 50.5402 43.564 49.5499 41.5368C48.7091 39.7999 48.2501 37.9051 48.2036 35.9783C48.157 34.0516 48.5239 32.1371 49.2799 30.3621C50.0347 28.2482 51.2727 26.337 52.8966 24.7786C54.5653 23.2189 56.585 22.0778 58.7874 21.4504C60.3128 21.0372 61.8929 20.8588 63.4727 20.9215C66.0065 21.0073 68.4833 21.691 70.6984 22.9162C73.0915 24.2969 75.0609 26.299 76.3953 28.7075Z" fill="white"/>
<path d="M141.764 14.2865C147.503 14.1951 149.786 14.3969 150.927 14.515C153.159 14.7437 154.973 15.075 156.201 15.3226C157.312 15.6161 161.411 16.8319 163.806 20.806C165.575 23.74 165.5 26.6585 165.458 28.2894C165.446 30.8986 164.735 33.4573 163.4 35.6976C162.234 37.6171 160.632 39.2342 158.726 40.4184C161.855 45.8012 164.984 51.184 168.112 56.5668L155.292 56.643C152.641 51.6668 151.459 49.2091 150.877 47.8793C150.512 47.0562 150.048 46.2785 149.694 45.4555C149.067 44.0039 148.865 43.2035 148.044 42.7387C147.644 42.5447 147.209 42.4352 146.765 42.4154C145.829 42.3037 144.882 42.3152 143.948 42.4496C143.961 47.1185 143.772 51.9791 143.772 56.643H132.961V14.5834C136.509 14.3776 139.505 14.2941 141.764 14.2865ZM143.433 33.2846H149.97C150.728 33.0026 151.429 32.5875 152.04 32.058C153.184 31.1356 153.952 29.8245 154.196 28.3734C154.333 27.7472 154.333 27.0989 154.2 26.4721C154.066 25.8452 153.801 25.2535 153.422 24.7377C153.042 24.222 152.556 23.7936 151.998 23.4809C151.439 23.1681 150.821 22.9783 150.183 22.9242L143.528 22.8978C143.498 26.3626 143.466 29.8249 143.433 33.2846Z" fill="white"/>
<path d="M175.038 14.5755C179.922 14.1015 184.842 14.1676 189.712 14.7728C194.695 15.4027 197.039 16.2937 198.983 17.4017C201.092 18.5532 202.955 20.1323 204.461 22.0433C208.128 26.8356 208.033 32.4664 207.989 35.2289C207.93 38.2683 207.801 46.727 201.743 52.0394C197.514 55.7353 192.159 56.3351 190.455 56.5287C189.205 56.669 186.894 56.6537 182.324 56.6234C179.329 56.6044 176.86 56.5628 175.192 56.5287L175.038 14.5755ZM192.288 25.266C189.139 23.0412 185.613 23.3682 184.408 23.5355C184.408 23.5355 184.115 47.9056 184.408 47.9056C184.701 47.9057 193.436 48.8749 195.574 41.0599C195.915 39.4767 196.106 37.8646 196.144 36.2455C196.235 33.0433 196.337 29.7803 194.215 27.0726C193.662 26.3817 193.013 25.7732 192.288 25.266Z" fill="white"/>
</g>
<path d="M11.4341 111.183H3.35177V76.548H11.4341V111.183ZM48.3533 76.548V111.183H44.1696C43.5515 111.183 43.0285 111.088 42.6006 110.898C42.1886 110.692 41.7766 110.343 41.3645 109.852L25.0336 89.1944C25.0969 89.8125 25.1366 90.4147 25.1524 91.001C25.1841 91.5715 25.2 92.1104 25.2 92.6175V111.183H18.1161V76.548H22.3474C22.696 76.548 22.9892 76.5638 23.2269 76.5955C23.4646 76.6272 23.6786 76.6906 23.8688 76.7857C24.0589 76.865 24.2412 76.9838 24.4155 77.1423C24.5898 77.3008 24.7879 77.5147 25.0098 77.7841L41.4834 98.5841C41.4041 97.9185 41.3487 97.2767 41.317 96.6586C41.2853 96.0247 41.2694 95.4304 41.2694 94.8758V76.548H48.3533ZM63.1555 82.7286V91.5002H74.9937V97.7046H63.1555V111.183H55.0732V76.548H77.3708V82.7286H63.1555ZM90.0841 111.183H82.0018V76.548H90.0841V111.183ZM127.003 76.548V111.183H122.82C122.202 111.183 121.679 111.088 121.251 110.898C120.839 110.692 120.427 110.343 120.015 109.852L103.684 89.1944C103.747 89.8125 103.787 90.4147 103.802 91.001C103.834 91.5715 103.85 92.1104 103.85 92.6175V111.183H96.7661V76.548H100.997C101.346 76.548 101.639 76.5638 101.877 76.5955C102.115 76.6272 102.329 76.6906 102.519 76.7857C102.709 76.865 102.891 76.9838 103.066 77.1423C103.24 77.3008 103.438 77.5147 103.66 77.7841L120.133 98.5841C120.054 97.9185 119.999 97.2767 119.967 96.6586C119.935 96.0247 119.919 95.4304 119.919 94.8758V76.548H127.003ZM141.806 111.183H133.723V76.548H141.806V111.183ZM173.376 82.9187H163.63V111.183H155.595V82.9187H145.849V76.548H173.376V82.9187ZM194.051 98.0136V111.183H186.017V98.0136L173.465 76.548H180.549C181.247 76.548 181.793 76.7144 182.189 77.0472C182.602 77.3642 182.942 77.7762 183.212 78.2833L188.109 88.3624C188.521 89.1548 188.893 89.8996 189.226 90.5969C189.559 91.2784 189.852 91.9519 190.105 92.6175C190.343 91.936 190.613 91.2546 190.914 90.5731C191.231 89.8759 191.595 89.1389 192.007 88.3624L196.856 78.2833C196.967 78.0773 197.102 77.8713 197.261 77.6653C197.419 77.4592 197.601 77.277 197.807 77.1185C198.029 76.9442 198.275 76.8095 198.544 76.7144C198.83 76.6035 199.139 76.548 199.471 76.548H206.603L194.051 98.0136Z" fill="white"/>
<defs>
<clipPath id="clip0_5092_2">
<rect width="208" height="71.3143" fill="white"/>
</clipPath>
</defs>
</svg>
