<svg width="208" height="122" viewBox="0 0 208 122" fill="none" xmlns="http://www.w3.org/2000/svg">
<path fill-rule="evenodd" clip-rule="evenodd" d="M2.37695 14.3618V56.5955H18.0397C18.0397 56.5955 28.842 57.52 33.0537 51.2285C33.0537 51.2285 37.5119 46.0104 33.9757 38.4048C32.4741 36.4562 30.4085 35.0252 28.0642 34.3097C28.0642 34.3097 31.2779 32.2584 32.181 30.1803C32.823 28.8371 33.2421 27.3969 33.4217 25.9172C33.6357 24.374 33.4769 22.8016 32.9588 21.3332C32.4048 19.9116 31.5045 18.6531 30.3408 17.6737C27.4913 15.1487 23.0937 14.5031 13.9229 14.3083C10.9444 14.251 7.03632 14.2281 2.37695 14.3618ZM13.6175 21.0199C13.5452 21.0199 13.6175 28.8617 13.6175 28.8617L19.2725 28.7628C19.2725 28.7628 22.4252 28.3292 22.5013 24.9598C22.5774 21.5903 19.9114 21.2214 20.075 21.2823C17.9289 21.0775 15.7732 20.9899 13.6175 21.0199ZM13.5454 45.9261C13.5454 45.9261 13.6177 37.0651 13.5454 36.9928L20.7369 37.2286C20.7369 37.2286 24.346 37.2628 24.4677 41.5336C24.5894 45.8044 19.3222 46.0744 19.3222 46.0744L13.5454 45.9261Z" fill="black"/>
<path d="M76.3953 28.7073L81.7499 25.3829C79.7419 22.6516 74.9349 16.7658 68.7627 15.1414C67.8614 14.9034 66.8878 14.7409 66.8878 14.7409C61.2632 13.3469 56.5931 15.4058 55.5054 15.8063C54.1059 16.3276 48.9338 18.4243 45.7317 23.1238C44.9884 24.2435 44.3397 25.4224 43.7922 26.6485C43.0092 28.4413 42.4252 30.3135 42.0504 32.232C41.9264 32.759 41.8324 33.2925 41.769 33.83C41.6701 34.8022 41.6701 35.7818 41.769 36.754C41.8799 38.3293 42.1487 39.8897 42.5714 41.412C42.9027 42.6475 43.3509 43.8492 43.9101 45.0008C44.7131 46.6506 45.7505 48.1773 46.9905 49.5342C48.3502 51.0077 49.9305 52.2641 51.6758 53.259C53.6381 54.4026 55.7587 55.2541 57.9698 55.7864C60.1493 56.3698 62.4104 56.5944 64.663 56.4513C66.9236 56.2849 69.1406 55.7461 71.2232 54.857C72.9985 54.1675 74.6638 53.2258 76.1671 52.0615C77.3979 51.074 78.5197 49.9597 79.5137 48.7371C80.61 47.4158 81.6381 46.0402 82.5942 44.6155C82.9212 44.1508 83.332 43.5615 83.7997 42.7531C84.2813 41.9505 84.685 41.1043 85.0053 40.2257C85.169 39.7459 85.3024 39.2564 85.4046 38.76C85.852 36.9035 86.4341 35.0816 87.1464 33.3087C87.9463 31.2638 89.0278 29.339 90.3599 27.5891C91.6339 25.9534 93.6343 23.3807 97.3232 21.8696C99.6301 20.9135 102.145 20.5585 104.628 20.8382C107.112 21.1178 109.483 22.0229 111.516 23.4676C113.17 24.5434 114.582 25.9465 115.665 27.5891C116.455 28.7722 117.057 30.0694 117.449 31.4349C117.894 33.1712 118.023 34.9726 117.829 36.754C117.647 38.5556 117.148 40.3113 116.353 41.9409C115.583 43.715 114.408 45.287 112.921 46.5327C111.434 47.7784 109.676 48.6636 107.785 49.1186C104.906 49.957 101.851 50.0027 98.9471 49.2508C96.7251 48.6451 94.6671 47.5545 92.9231 46.0586C91.6275 44.9237 90.5401 43.5739 89.7096 42.0693L84.3626 45.5411C84.4158 45.6355 84.5641 45.8924 84.7619 46.206C86.5567 48.8605 88.8267 51.1653 91.459 53.0059C91.8393 53.2704 92.2614 53.5348 92.2614 53.5348C92.2614 53.5348 93.3529 54.2375 94.2694 54.7324C96.1675 55.6353 98.203 56.2199 100.293 56.4626C102.476 56.7417 104.688 56.6972 106.857 56.3304C108.809 56.0421 110.704 55.4586 112.478 54.6001C114.158 53.7805 115.699 52.7032 117.042 51.4079C117.061 51.4079 117.114 51.2682 117.179 51.2757C117.243 51.2833 117.293 51.4873 117.312 51.6762C117.331 51.865 117.407 52.1068 117.445 52.341C117.512 52.7361 117.557 53.1347 117.578 53.5348C117.612 53.6708 117.654 53.8522 117.711 54.0675C117.802 54.4075 117.905 54.7664 117.981 55.0006C118.16 55.5491 118.384 56.0822 118.65 56.5948H126.682L126.416 56.217C126.184 55.8053 125.96 55.3633 125.747 54.8873C125.002 53.2006 124.549 51.4009 124.408 49.5644C124.336 48.3404 124.256 46.444 124.275 44.1131C124.275 41.9522 124.378 41.2155 124.408 39.3229C124.458 36.1873 124.484 34.2607 124.138 32.1451C123.682 29.3639 122.682 26.6984 121.195 24.2987C119.503 21.5823 117.208 19.286 114.486 17.5856C111.753 15.9434 108.693 14.9121 105.519 14.5634C102.502 14.1489 99.4308 14.4149 96.5322 15.3416C94.0269 16.1892 91.7047 17.4977 89.6868 19.1987C88.0287 20.5203 86.5441 22.0433 85.2677 23.732C84.1795 25.1881 83.2382 26.747 82.4573 28.3862C81.7879 29.7311 81.2859 31.0307 80.3162 33.5731C78.8292 37.4604 79.0878 37.1846 78.4413 38.6278C77.5259 40.8523 76.2602 42.9181 74.6915 44.7477C73.5736 46.1144 72.225 47.2777 70.706 48.1855C67.3511 49.9895 63.4616 50.5556 59.7267 49.7835C57.5287 49.227 55.4793 48.2007 53.7216 46.7764C51.9639 45.352 50.5402 43.5639 49.5499 41.5366C48.7091 39.7997 48.2501 37.9049 48.2036 35.9782C48.157 34.0515 48.5239 32.137 49.2799 30.362C50.0347 28.2481 51.2727 26.3369 52.8966 24.7785C54.5653 23.2188 56.585 22.0777 58.7874 21.4503C60.3128 21.0371 61.8929 20.8587 63.4727 20.9214C66.0065 21.0072 68.4833 21.6909 70.6984 22.916C73.0915 24.2968 75.0609 26.2988 76.3953 28.7073Z" fill="#0066CC"/>
<path fill-rule="evenodd" clip-rule="evenodd" d="M132.961 56.6433V14.5832C136.509 14.3775 139.506 14.2936 141.765 14.286C147.503 14.1946 149.785 14.3965 150.926 14.5146C153.158 14.7433 154.972 15.0748 156.201 15.3225C157.311 15.6159 161.411 16.8314 163.807 20.8057C165.574 23.7379 165.499 26.6548 165.457 28.2863L165.457 28.2895C165.445 30.8987 164.735 33.4568 163.4 35.6971C162.233 37.6167 160.632 39.234 158.726 40.4183L168.112 56.5671L155.292 56.6433C152.641 51.6668 151.458 49.209 150.877 47.8792C150.702 47.486 150.505 47.1032 150.308 46.7209C150.093 46.3029 149.879 45.8856 149.694 45.4557C149.587 45.2077 149.492 44.9787 149.404 44.7672C148.979 43.7403 148.725 43.1243 148.043 42.7388C147.644 42.5449 147.209 42.4347 146.766 42.4149C145.829 42.3032 144.881 42.3148 143.948 42.4492C143.954 44.862 143.907 47.326 143.86 49.7876C143.816 52.0895 143.772 54.3894 143.772 56.6433H132.961ZM143.433 33.2847C143.466 29.8248 143.498 26.3624 143.528 22.8974L150.184 22.9241C150.821 22.9782 151.44 23.168 151.998 23.4808C152.556 23.7936 153.042 24.2223 153.421 24.7381C153.801 25.2538 154.067 25.8449 154.2 26.4718C154.334 27.0986 154.332 27.7468 154.196 28.373C153.951 29.8243 153.184 31.1353 152.039 32.0578C151.428 32.5872 150.728 33.0028 149.971 33.2847H143.433Z" fill="black"/>
<path fill-rule="evenodd" clip-rule="evenodd" d="M175.192 56.528L175.037 14.575C179.922 14.101 184.842 14.1671 189.713 14.7724C194.695 15.4023 197.039 16.294 198.983 17.402C201.092 18.5535 202.955 20.1318 204.461 22.0428C208.123 26.8281 208.033 32.4496 207.989 35.2165L207.988 35.229L207.987 35.2819C207.928 38.3656 207.766 46.7571 201.742 52.039C197.524 55.7257 192.186 56.3315 190.468 56.5266L190.455 56.528C189.206 56.6684 186.894 56.6532 182.324 56.6229C179.329 56.6039 176.86 56.5622 175.192 56.528ZM184.408 47.9051C184.115 47.9051 184.408 23.5355 184.408 23.5355C185.613 23.3682 189.138 23.0411 192.287 25.2659C193.013 25.7731 193.662 26.3814 194.215 27.0723C196.328 29.7682 196.236 33.0146 196.145 36.2032L196.144 36.2451C196.106 37.8644 195.915 39.4764 195.573 41.0597C193.536 48.5075 185.507 47.9769 184.503 47.9105C184.454 47.9073 184.421 47.9051 184.408 47.9051Z" fill="black"/>
<path d="M11.4341 111.183H3.35177V76.548H11.4341V111.183ZM48.3533 76.548V111.183H44.1696C43.5515 111.183 43.0285 111.088 42.6006 110.898C42.1886 110.692 41.7766 110.343 41.3645 109.852L25.0336 89.1944C25.0969 89.8125 25.1366 90.4147 25.1524 91.001C25.1841 91.5715 25.2 92.1104 25.2 92.6175V111.183H18.1161V76.548H22.3474C22.696 76.548 22.9892 76.5638 23.2269 76.5955C23.4646 76.6272 23.6786 76.6906 23.8688 76.7857C24.0589 76.865 24.2412 76.9838 24.4155 77.1423C24.5898 77.3008 24.7879 77.5147 25.0098 77.7841L41.4834 98.5841C41.4041 97.9185 41.3487 97.2767 41.317 96.6586C41.2853 96.0247 41.2694 95.4304 41.2694 94.8758V76.548H48.3533ZM63.1555 82.7286V91.5002H74.9937V97.7046H63.1555V111.183H55.0732V76.548H77.3708V82.7286H63.1555ZM90.0841 111.183H82.0018V76.548H90.0841V111.183ZM127.003 76.548V111.183H122.82C122.202 111.183 121.679 111.088 121.251 110.898C120.839 110.692 120.427 110.343 120.015 109.852L103.684 89.1944C103.747 89.8125 103.787 90.4147 103.802 91.001C103.834 91.5715 103.85 92.1104 103.85 92.6175V111.183H96.7661V76.548H100.997C101.346 76.548 101.639 76.5638 101.877 76.5955C102.115 76.6272 102.329 76.6906 102.519 76.7857C102.709 76.865 102.891 76.9838 103.066 77.1423C103.24 77.3008 103.438 77.5147 103.66 77.7841L120.133 98.5841C120.054 97.9185 119.999 97.2767 119.967 96.6586C119.935 96.0247 119.919 95.4304 119.919 94.8758V76.548H127.003ZM141.806 111.183H133.723V76.548H141.806V111.183ZM173.376 82.9187H163.63V111.183H155.595V82.9187H145.849V76.548H173.376V82.9187ZM194.051 98.0136V111.183H186.017V98.0136L173.465 76.548H180.549C181.247 76.548 181.793 76.7144 182.189 77.0472C182.602 77.3642 182.942 77.7762 183.212 78.2833L188.109 88.3624C188.521 89.1548 188.893 89.8996 189.226 90.5969C189.559 91.2784 189.852 91.9519 190.105 92.6175C190.343 91.936 190.613 91.2546 190.914 90.5731C191.231 89.8759 191.595 89.1389 192.007 88.3624L196.856 78.2833C196.967 78.0773 197.102 77.8713 197.261 77.6653C197.419 77.4592 197.601 77.277 197.807 77.1185C198.029 76.9442 198.275 76.8095 198.544 76.7144C198.83 76.6035 199.139 76.548 199.471 76.548H206.603L194.051 98.0136Z" fill="black"/>
</svg>
