<svg width="96" height="96" viewBox="0 0 96 96" fill="none" xmlns="http://www.w3.org/2000/svg">
<rect width="96" height="96" fill="white"/>
<path d="M40.7005 41.4444L46.0551 38.12C44.0471 35.3886 39.2401 29.5029 33.0678 27.8784C32.1665 27.6404 31.193 27.478 31.193 27.478C25.5683 26.084 20.8982 28.1429 19.8106 28.5433C18.4111 29.0647 13.239 31.1613 10.0369 35.8609C9.2936 36.9806 8.64488 38.1595 8.09736 39.3855C7.31438 41.1783 6.73034 43.0506 6.35558 44.9691C6.23157 45.496 6.13762 46.0296 6.07416 46.5671C5.97528 47.5392 5.97528 48.5189 6.07416 49.491C6.18506 51.0663 6.45387 52.6267 6.87659 54.149C7.20787 55.3846 7.65609 56.5862 8.21525 57.7379C9.01832 59.3877 10.0557 60.9144 11.2957 62.2712C12.6554 63.7447 14.2357 65.0011 15.981 65.9961C17.9433 67.1397 20.0638 67.9912 22.2749 68.5234C24.4545 69.1068 26.7155 69.3314 28.9682 69.1883C31.2288 69.0219 33.4458 68.4832 35.5284 67.5941C37.3037 66.9045 38.969 65.9629 40.4723 64.7985C41.7031 63.8111 42.8249 62.6967 43.8189 61.4741C44.9152 60.1528 45.9433 58.7772 46.8994 57.3526C47.2264 56.8879 47.6371 56.2986 48.1049 55.4901C48.5865 54.6876 48.9902 53.8413 49.3105 52.9628C49.4742 52.483 49.6075 51.9934 49.7098 51.497C50.1572 49.6406 50.7393 47.8187 51.4515 46.0457C52.2515 44.0008 53.333 42.076 54.6651 40.3262C55.9391 38.6904 57.9395 36.1178 61.6284 34.6066C63.9353 33.6506 66.4498 33.2956 68.9336 33.5752C71.4174 33.8549 73.7881 34.7599 75.8212 36.2046C77.4747 37.2805 78.8872 38.6836 79.9702 40.3262C80.7605 41.5092 81.3622 42.8065 81.7538 44.1719C82.199 45.9083 82.3277 47.7097 82.1341 49.491C81.9525 51.2926 81.453 53.0484 80.6586 54.6779C79.8881 56.4521 78.7129 58.0241 77.2259 59.2697C75.739 60.5154 73.9809 61.4007 72.0904 61.8557C69.2108 62.6941 66.156 62.7398 63.2522 61.9879C61.0302 61.3821 58.9723 60.2916 57.2283 58.7957C55.9327 57.6608 54.8453 56.311 54.0148 54.8064L48.6677 58.2781C48.721 58.3726 48.8693 58.6295 49.0671 58.943C50.8619 61.5975 53.1318 63.9023 55.7641 65.743C56.1444 66.0074 56.5666 66.2719 56.5666 66.2719C56.5666 66.2719 57.658 66.9745 58.5746 67.4694C60.4727 68.3723 62.5082 68.9569 64.5985 69.1996C66.781 69.4788 68.9932 69.4342 71.1625 69.0674C73.114 68.7791 75.0096 68.1956 76.7833 67.3372C78.4637 66.5175 80.0037 65.4403 81.3469 64.145C81.3659 64.145 81.4192 64.0052 81.4838 64.0128C81.5485 64.0203 81.5979 64.2243 81.6169 64.4132C81.6359 64.6021 81.712 64.8439 81.75 65.0781C81.8173 65.4732 81.8618 65.8718 81.8831 66.2719C81.9174 66.4079 81.9592 66.5892 82.0162 66.8045C82.1075 67.1445 82.2102 67.5034 82.2863 67.7376C82.4657 68.2861 82.6895 68.8193 82.9556 69.3319H90.9875L90.7213 68.9541C90.4893 68.5423 90.265 68.1003 90.052 67.6243C89.3069 65.9377 88.8543 64.138 88.7133 62.3014C88.6411 61.0774 88.5612 59.181 88.5802 56.8501C88.5802 54.6892 88.6829 53.9526 88.7133 52.0599C88.7628 48.9244 88.7894 46.9977 88.4433 44.8822C87.9868 42.101 86.9869 39.4354 85.4998 37.0357C83.808 34.3193 81.5134 32.0231 78.7913 30.3227C76.0585 28.6805 72.9984 27.6492 69.8238 27.3004C66.8075 26.8859 63.7359 27.1519 60.8373 28.0787C58.3321 28.9263 56.0099 30.2347 53.9919 31.9358C52.3339 33.2574 50.8493 34.7804 49.5729 36.4691C48.4847 37.9252 47.5434 39.4841 46.7624 41.1233C46.0931 42.4682 45.5911 43.7677 44.6214 46.3102C43.1344 50.1975 43.393 49.9217 42.7465 51.3648C41.8311 53.5894 40.5653 55.6552 38.9967 57.4848C37.8788 58.8515 36.5302 60.0147 35.0112 60.9226C31.6563 62.7265 27.7668 63.2926 24.0319 62.5206C21.8338 61.964 19.7845 60.9378 18.0268 59.5134C16.2691 58.0891 14.8454 56.3009 13.8551 54.2737C13.0143 52.5368 12.5553 50.642 12.5087 48.7153C12.4622 46.7885 12.8291 44.874 13.5851 43.0991C14.3399 40.9852 15.5779 39.0739 17.2017 37.5155C18.8704 35.9559 20.8901 34.8148 23.0926 34.1873C24.6179 33.7741 26.1981 33.5957 27.7779 33.6584C30.3117 33.7442 32.7885 34.428 35.0036 35.6531C37.3967 37.0338 39.3661 39.0359 40.7005 41.4444Z" fill="#0066CC"/>
</svg>
